<svg xmlns="http://www.w3.org/2000/svg" viewBox="0 0 1080 1080" role="img" aria-label="BriBu">
  <path fill="#6d5ef9" d="M625.16,476.34c46.5-29.98,105.3-33.13,153.16-5.76,69.38,39.67,94.51,128.08,56.21,198.29-24.63,45.16-70.99,74.65-123.14,75.96-35.92.91-73.55-9.22-99.3-34.96l-168.81-168.76c-30.49-30.48-78.53-32.51-111.09-4.35-24.72,21.38-34.56,54.51-24.56,85.9,12.83,40.29,54.23,65.22,95.86,55.86,38.12-8.57,64.08-43.25,63.08-83l55.82,55.43c-17.81,49.81-62.1,84.46-113.06,92.37-92.4,14.34-172.58-57.82-170.2-151.17l.62-213.75c.05-16.23,11.26-28.08,27.32-30.22,17.95-2.39,36.54,9.81,36.65,29.13l.56,99.11c37.61-24.77,82.68-30.82,125.01-18.2,25.22,7.52,44.89,21.7,63.37,40.25l160.55,161.24c28.56,28.68,75.21,26.42,105.47,1.41,29.47-24.34,37.78-66.35,20.39-99.99-12.38-23.95-36-39.72-60.57-43.15-50.11-7-94.21,29.66-94.14,82.34l-63.66-63.43.04-158.51c0-15.19,10.08-26.8,24.29-29.96,10.15-2.26,20.35-.13,28.55,6.59,7.15,5.86,11.52,14.92,11.53,25.58l.06,95.73Z"/>
</svg>
